# File created by Blade
# Date/Time:  Tue Jan 27 18:35:03 2015
# Frame Rate: 120.000 fps
#------------------------------------------------------
:FULLY-SPECIFIED
:DEGREES
2020
root -3.916545 32.080605 -1.543042 8.893253 11.552896 -5.369003
Spine -2.072696 -11.578619 -4.437570
Head -4.788879 -1.137745 16.974512
LeftShoulder -13.894723 14.766441 15.860031
LeftArm 24.001697 -29.465324 -80.887706
LeftForeArm 120.677639 -0.000000 137.103753
LeftHand 7.039492 -0.000000 1.601902
LeftHandThumb1 -26.253704 0.000000 33.147579
RightShoulder -14.588946 -7.653111 -10.155565
RightArm 0.774093 -31.168770 87.630493
RightForeArm -22.741292 -0.000000 34.160245
RightHand -14.634833 0.000000 9.843936
RightHandThumb1 -24.326973 -0.000000 -32.862282
LeftUpLeg -12.164131 1.693762 -1.278400
LeftLeg 13.386078 -0.000000 -0.000000
LeftFoot -22.605830 18.570546 -16.961796
LeftToeBase 9.437108 -0.000000 -0.000000
RightUpLeg -12.413714 -0.757434 1.006945
RightLeg 12.315456 -0.000000 -0.000000
RightFoot -10.456202 -4.695188 13.270762
RightToeBase -3.153817 -0.000000 0.000000
2021
root -3.926678 32.080373 -1.524272 8.841321 11.553273 -5.322523
Spine -2.082401 -11.595938 -4.453421
Head -4.830870 -1.123839 16.988064
LeftShoulder -13.888367 14.784959 15.819287
LeftArm 23.971145 -29.533003 -80.908409
LeftForeArm 120.724485 0.000000 137.019719
LeftHand 7.036847 -0.000000 1.656888
LeftHandThumb1 -26.253704 0.000000 33.147579
RightShoulder -14.603081 -7.663639 -10.121613
RightArm 0.681594 -31.273205 87.705489
RightForeArm -22.757366 0.000000 33.898858
RightHand -14.746843 0.000000 9.933361
RightHandThumb1 -24.326973 -0.000000 -32.862282
LeftUpLeg -12.029661 1.730232 -1.298061
LeftLeg 13.293364 -0.000000 -0.000000
LeftFoot -22.567791 18.527416 -16.945878
LeftToeBase 9.419380 -0.000000 -0.000000
RightUpLeg -12.354146 -0.785560 1.001586
RightLeg 12.375977 -0.000000 -0.000000
RightFoot -10.537607 -4.721275 13.278953
RightToeBase -3.064564 -0.000000 0.000000
2022
root -3.938570 32.080071 -1.506229 8.804634 11.543462 -5.278838
Spine -2.101919 -11.607870 -4.481798
Head -4.883442 -1.059030 17.025146
LeftShoulder -13.910997 14.795245 15.792434
LeftArm 23.944248 -29.576765 -80.915134
LeftForeArm 120.810181 -0.000000 136.941215
LeftHand 7.066334 0.000000 1.707716
LeftHandThumb1 -26.253704 0.000000 33.147579
RightShoulder -14.621920 -7.698421 -10.083106
RightArm 0.628799 -31.412650 87.783973
RightForeArm -22.599079 -0.000000 33.553864
RightHand -14.672490 0.000000 9.802065
RightHandThumb1 -24.326973 -0.000000 -32.862282
LeftUpLeg -11.916540 1.784639 -1.317439
LeftLeg 13.207372 -0.000000 -0.000000
LeftFoot -22.538245 18.493747 -16.929726
LeftToeBase 9.377576 -0.000000 -0.000000
RightUpLeg -12.311889 -0.744539 0.993301
RightLeg 12.437619 -0.000000 -0.000000
RightFoot -10.616111 -4.819428 13.224940
RightToeBase -3.066214 -0.000000 0.000000
2023
root -3.955654 32.080944 -1.485815 8.752305 11.553398 -5.271031
Spine -2.124494 -11.645870 -4.472037
Head -4.920787 -1.009082 17.052945
LeftShoulder -13.935993 14.821478 15.746797
LeftArm 23.913698 -29.640606 -80.884665
LeftForeArm 120.848635 -0.000000 136.863092
LeftHand 7.096258 -0.000000 1.765161
LeftHandThumb1 -26.253704 0.000000 33.147579
RightShoulder -14.605057 -7.721748 -10.047227
RightArm 0.539317 -31.445481 87.893265
RightForeArm -22.670676 -0.000000 33.240233
RightHand -14.636606 -0.000000 10.065796
RightHandThumb1 -24.326973 -0.000000 -32.862282
LeftUpLeg -11.795638 1.853490 -1.288120
LeftLeg 13.127166 -0.000000 -0.000000
LeftFoot -22.519036 18.412161 -16.931159
LeftToeBase 9.408224 -0.000000 -0.000000
RightUpLeg -12.175735 -0.649422 1.010692
RightLeg 12.326632 -0.000000 -0.000000
RightFoot -10.647572 -4.898864 13.274775
RightToeBase -3.000659 -0.000000 0.000000
2024
root -3.968331 32.079671 -1.470660 8.729359 11.566791 -5.220966
Spine -2.150458 -11.691815 -4.486873
Head -4.980938 -0.988724 17.054327
LeftShoulder -13.946693 14.774151 15.721383
LeftArm 23.793966 -29.729685 -80.833212
LeftForeArm 120.885454 0.000000 136.800557
LeftHand 7.131785 -0.000000 1.826951
LeftHandThumb1 -26.253704 0.000000 33.147579
RightShoulder -14.609815 -7.748552 -10.026517
RightArm 0.482994 -31.552520 87.992219
RightForeArm -22.591380 -0.000000 32.909213
RightHand -14.572087 -0.000000 10.110352
RightHandThumb1 -24.326973 -0.000000 -32.862282
LeftUpLeg -11.708446 1.863015 -1.306643
LeftLeg 13.057733 -0.000000 -0.000000
LeftFoot -22.510050 18.391504 -16.946049
LeftToeBase 9.419336 -0.000000 -0.000000
RightUpLeg -12.123039 -0.620167 0.996711
RightLeg 12.333362 -0.000000 -0.000000
RightFoot -10.721696 -4.986486 13.263461
RightToeBase -3.004120 -0.000000 0.000000
2025
root -3.979200 32.077837 -1.455662 8.701348 11.585409 -5.171301
Spine -2.182242 -11.725112 -4.486077
Head -5.023470 -0.943593 17.042338
LeftShoulder -13.940705 14.785829 15.671958
LeftArm 23.736761 -29.821694 -80.807663
LeftForeArm 120.882233 -0.000000 136.728681
LeftHand 7.151145 -0.000000 1.904404
LeftHandThumb1 -26.253704 0.000000 33.147579
RightShoulder -14.601552 -7.754570 -10.029035
RightArm 0.390051 -31.671624 88.121390
RightForeArm -22.558794 -0.000000 32.556078
RightHand -14.499033 -0.000000 10.020490
RightHandThumb1 -24.326973 -0.000000 -32.862282
LeftUpLeg -11.618682 1.870894 -1.330635
LeftLeg 12.994420 -0.000000 -0.000000
LeftFoot -22.504643 18.375356 -16.935647
LeftToeBase 9.425269 -0.000000 -0.000000
RightUpLeg -12.075822 -0.651339 0.989056
RightLeg 12.364084 -0.000000 -0.000000
RightFoot -10.803949 -5.032130 13.223009
RightToeBase -2.925734 -0.000000 0.000000
2026
root -3.986074 32.076461 -1.438455 8.666799 11.606102 -5.109013
Spine -2.200644 -11.765839 -4.492328
Head -5.091048 -0.895249 17.047054
LeftShoulder -13.973330 14.796416 15.602639
LeftArm 23.701194 -29.864765 -80.800176
LeftForeArm 120.917903 -0.000000 136.663961
LeftHand 7.148109 -0.000000 1.949762
LeftHandThumb1 -26.253704 0.000000 33.147579
RightShoulder -14.603657 -7.768020 -10.017125
RightArm 0.316956 -31.757761 88.215474
RightForeArm -22.535588 0.000000 32.232450
RightHand -14.555680 -0.000000 10.226595
RightHandThumb1 -24.326973 -0.000000 -32.862282
LeftUpLeg -11.501936 1.878398 -1.371890
LeftLeg 12.899453 -0.000000 -0.000000
LeftFoot -22.465790 18.363010 -16.919628
LeftToeBase 9.410470 -0.000000 -0.000000
RightUpLeg -12.004615 -0.715971 0.964447
RightLeg 12.372151 -0.000000 -0.000000
RightFoot -10.883696 -5.045950 13.195006
RightToeBase -2.859001 -0.000000 0.000000
2027
root -3.999184 32.075508 -1.425034 8.659983 11.609670 -5.059601
Spine -2.249716 -11.782753 -4.504069
Head -5.158097 -0.883850 17.071693
LeftShoulder -13.979341 14.805690 15.565963
LeftArm 23.652736 -29.929321 -80.786528
LeftForeArm 120.868092 0.000000 136.595126
LeftHand 7.152146 -0.000000 2.028280
LeftHandThumb1 -26.253704 0.000000 33.147579
RightShoulder -14.591105 -7.790730 -9.995285
RightArm 0.240425 -31.825251 88.336041
RightForeArm -22.467240 0.000000 31.885629
RightHand -14.514769 -0.000000 10.218941
RightHandThumb1 -24.326973 -0.000000 -32.862282
LeftUpLeg -11.424187 1.891476 -1.390526
LeftLeg 12.811962 -0.000000 -0.000000
LeftFoot -22.449821 18.336666 -16.937199
LeftToeBase 9.441349 -0.000000 -0.000000
RightUpLeg -11.964322 -0.680354 0.953715
RightLeg 12.361371 -0.000000 -0.000000
RightFoot -10.953798 -5.145402 13.155627
RightToeBase -2.852103 -0.000000 0.000000
2028
root -4.017183 32.074532 -1.413640 8.667207 11.620689 -5.026772
Spine -2.296379 -11.796167 -4.514855
Head -5.263228 -0.874923 17.114379
LeftShoulder -13.990566 14.819442 15.542066
LeftArm 23.647928 -30.015857 -80.788822
LeftForeArm 120.814327 0.000000 136.542396
LeftHand 7.220624 0.000000 2.079597
LeftHandThumb1 -26.253704 0.000000 33.147579
RightShoulder -14.610333 -7.797819 -9.952757
RightArm 0.171478 -31.909904 88.442649
RightForeArm -22.458964 -0.000000 31.553717
RightHand -14.412673 -0.000000 10.396369
RightHandThumb1 -24.326973 -0.000000 -32.862282
LeftUpLeg -11.388650 1.938077 -1.387295
LeftLeg 12.763670 -0.000000 -0.000000
LeftFoot -22.430635 18.265565 -16.925511
LeftToeBase 9.437149 -0.000000 -0.000000
RightUpLeg -11.948356 -0.625548 0.964385
RightLeg 12.358835 -0.000000 -0.000000
RightFoot -11.032061 -5.263619 13.152244
RightToeBase -2.811466 -0.000000 0.000000
2029
root -4.025779 32.072684 -1.395260 8.612850 11.657392 -4.973901
Spine -2.283973 -11.840419 -4.521310
Head -5.353408 -0.843017 17.120188
LeftShoulder -14.009948 14.826395 15.491726
LeftArm 23.589878 -30.074353 -80.788451
LeftForeArm 120.759673 0.000000 136.502621
LeftHand 7.240513 -0.000000 2.104673
LeftHandThumb1 -26.253704 0.000000 33.147579
RightShoulder -14.615105 -7.818182 -9.927461
RightArm 0.122488 -32.012815 88.526242
RightForeArm -22.403058 -0.000000 31.202041
RightHand -14.357067 0.000000 10.457771
RightHandThumb1 -24.326973 -0.000000 -32.862282
LeftUpLeg -11.254808 1.904375 -1.409218
LeftLeg 12.676214 -0.000000 -0.000000
LeftFoot -22.422604 18.264856 -16.934524
LeftToeBase 9.444802 -0.000000 -0.000000
RightUpLeg -11.839088 -0.714088 0.953097
RightLeg 12.331199 -0.000000 -0.000000
RightFoot -11.103349 -5.252024 13.099067
RightToeBase -2.702118 -0.000000 0.000000
2030
root -4.036474 32.071052 -1.381289 8.624996 11.654920 -4.922787
Spine -2.350467 -11.840908 -4.506755
Head -5.445063 -0.810772 17.132098
LeftShoulder -14.018765 14.844810 15.417744
LeftArm 23.542498 -30.160274 -80.769309
LeftForeArm 120.689809 0.000000 136.459644
LeftHand 7.241348 -0.000000 2.114020
LeftHandThumb1 -26.253704 0.000000 33.147579
RightShoulder -14.629882 -7.826145 -9.930586
RightArm 0.055803 -32.155899 88.641264
RightForeArm -22.355016 -0.000000 30.840256
RightHand -14.344475 -0.000000 10.434957
RightHandThumb1 -24.326973 -0.000000 -32.862282
LeftUpLeg -11.200865 1.912460 -1.435663
LeftLeg 12.604424 -0.000000 -0.000000
LeftFoot -22.409614 18.255907 -16.942523
LeftToeBase 9.440220 -0.000000 -0.000000
RightUpLeg -11.803920 -0.715419 0.937356
RightLeg 12.299154 -0.000000 -0.000000
RightFoot -11.157755 -5.303936 13.044807
RightToeBase -2.678571 -0.000000 0.000000
2031
root -4.050874 32.070134 -1.368327 8.622920 11.661024 -4.881337
Spine -2.387509 -11.853765 -4.509470
Head -5.551904 -0.810950 17.171172
LeftShoulder -14.051819 14.850459 15.381794
LeftArm 23.498689 -30.216528 -80.785906
LeftForeArm 120.679379 -0.000000 136.406160
LeftHand 7.237467 -0.000000 2.184691
LeftHandThumb1 -26.253704 0.000000 33.147579
RightShoulder -14.617136 -7.851363 -9.897563
RightArm 0.013620 -32.242374 88.728084
RightForeArm -22.306381 0.000000 30.510007
RightHand -14.320469 -0.000000 10.603644
RightHandThumb1 -24.326973 -0.000000 -32.862282
LeftUpLeg -11.151323 1.930857 -1.444517
LeftLeg 12.559983 -0.000000 -0.000000
LeftFoot -22.400570 18.219690 -16.957794
LeftToeBase 9.423892 -0.000000 -0.000000
RightUpLeg -11.754406 -0.696159 0.936488
RightLeg 12.257423 -0.000000 -0.000000
RightFoot -11.212920 -5.379742 13.009430
RightToeBase -2.689041 -0.000000 0.000000
